<svg width="156" height="156" viewBox="0 0 156 156" fill="none" xmlns="http://www.w3.org/2000/svg">
<circle cx="78.0001" cy="78.0016" r="62.4" fill="#2E2E2E"/>
<path d="M49.3291 44.8359C50.9009 44.8984 53.0072 44.9609 55.6479 45.0233C58.3514 45.0858 61.0236 45.117 63.6642 45.117C66.6822 45.117 69.6058 45.0858 72.4351 45.0233C75.2644 44.9609 77.2763 44.9296 78.4709 44.9296C86.2672 44.9296 92.083 46.3038 95.9183 49.0521C99.8164 51.8005 101.766 55.3296 101.766 59.6395C101.766 61.8257 101.105 64.0431 99.785 66.2918C98.4647 68.5404 96.4213 70.5392 93.6548 72.2882C90.8884 74.0371 87.3046 75.3176 82.9035 76.1296V76.317C88.8136 76.7543 93.4977 77.8161 96.9557 79.5026C100.414 81.1891 102.897 83.2191 104.406 85.5927C105.915 87.9663 106.67 90.4335 106.67 92.9945C106.67 98.866 104.343 103.363 99.6907 106.486C95.1009 109.61 88.7507 111.171 80.6401 111.171C79.1311 111.171 76.9305 111.14 74.0383 111.077C71.209 110.952 67.8139 110.89 63.8529 110.89C61.0864 110.89 58.3514 110.921 55.6479 110.984C53.0072 110.984 50.9009 111.046 49.3291 111.171V109.297C51.341 109.172 52.85 108.922 53.856 108.548C54.862 108.173 55.5221 107.423 55.8365 106.299C56.2137 105.175 56.4024 103.488 56.4024 101.24V54.7675C56.4024 52.4564 56.2137 50.7699 55.8365 49.708C55.5221 48.5837 54.8305 47.8341 53.7617 47.4594C52.7557 47.0221 51.2782 46.7723 49.3291 46.7098V44.8359ZM77.2449 46.7098C74.7928 46.7098 73.1896 47.2407 72.4351 48.3026C71.7435 49.3645 71.3977 51.5194 71.3977 54.7675V101.24C71.3977 104.488 71.8063 106.611 72.6237 107.611C73.441 108.548 75.2015 109.016 77.9051 109.016C82.4319 109.016 85.7328 107.611 87.8076 104.8C89.9453 101.927 91.0142 97.8666 91.0142 92.6197C91.0142 87.8101 89.7881 84.0936 87.3361 81.4702C84.9469 78.8467 80.9544 77.535 75.3587 77.535H67.3423C67.3423 77.535 67.3423 77.2852 67.3423 76.7855C67.3423 76.2233 67.3423 75.9422 67.3423 75.9422H75.453C78.408 75.9422 80.6715 75.2552 82.2433 73.881C83.8152 72.4443 84.9154 70.5705 85.5442 68.2594C86.1729 65.8858 86.4873 63.3561 86.4873 60.6702C86.4873 56.0479 85.7642 52.5813 84.3181 50.2702C82.8721 47.8966 80.5143 46.7098 77.2449 46.7098Z" fill="#E9EDC9"/>
</svg>
